# xmcd CD database file
#
# Track frame offsets:
#	150
#	16153
#	35989
#	60051
#	78988
#	94090
#	109001
#	123145
#	144262
#	161946
#	177247
#
# Disc length: 2707 seconds
#
# Revision: 0
# Processed by: cddbd v1.5.2PL0 Copyright (c) Steve Scherf et al.
# Submitted via: CDex 1.51
#
DISCID=820a910b
DTITLE=Andrew "Jr. Boy" Jones - Mr. Domestic
DYEAR=2002
DGENRE=Blues
TTITLE0=My Work
TTITLE1=Baby, I'm Sorry
TTITLE2=Mr. Domestic
TTITLE3=She's Fine
TTITLE4=Blues Belly
TTITLE5=I Got To Go
TTITLE6=Bang Bang
TTITLE7=These Dreams
TTITLE8=I'm The One
TTITLE9=Bad Luck Is On Me
TTITLE10=I Get No Respect
EXTD=YEAR: 2002
EXTT0=
EXTT1=
EXTT2=
EXTT3=
EXTT4=
EXTT5=
EXTT6=
EXTT7=
EXTT8=
EXTT9=
EXTT10=
PLAYORDER=
